<mxfile host="app.diagrams.net" agent="Mozilla/5.0 (Windows NT 10.0; Win64; x64) AppleWebKit/537.36 (KHTML, like Gecko) Chrome/129.0.0.0 Safari/537.36" version="24.7.17">
  <diagram name="PÃ¡gina-1" id="YrbzbB4u4xsV5T4cy86H">
    <mxGraphModel dx="2087" dy="1315" grid="0" gridSize="10" guides="1" tooltips="1" connect="1" arrows="1" fold="1" page="0" pageScale="1" pageWidth="827" pageHeight="1169" math="0" shadow="0">
      <root>
        <mxCell id="0" />
        <mxCell id="1" parent="0" />
        <mxCell id="O18itCTXoVbGsk_E1Cya-55" value="VPC" style="points=[[0,0],[0.25,0],[0.5,0],[0.75,0],[1,0],[1,0.25],[1,0.5],[1,0.75],[1,1],[0.75,1],[0.5,1],[0.25,1],[0,1],[0,0.75],[0,0.5],[0,0.25]];outlineConnect=0;gradientColor=none;html=1;whiteSpace=wrap;fontSize=12;fontStyle=0;container=1;pointerEvents=0;collapsible=0;recursiveResize=0;shape=mxgraph.aws4.group;grIcon=mxgraph.aws4.group_vpc2;strokeColor=#8C4FFF;fillColor=none;verticalAlign=top;align=left;spacingLeft=30;fontColor=#AAB7B8;dashed=0;strokeWidth=3;" vertex="1" parent="1">
          <mxGeometry x="200" y="49" width="1200" height="621" as="geometry" />
        </mxCell>
        <mxCell id="O18itCTXoVbGsk_E1Cya-66" value="Kubernetes Service" style="fillColor=none;strokeColor=#5A6C86;verticalAlign=top;fontStyle=0;fontColor=#5A6C86;whiteSpace=wrap;html=1;strokeWidth=3;" vertex="1" parent="O18itCTXoVbGsk_E1Cya-55">
          <mxGeometry x="600" y="38.5" width="580" height="432.5" as="geometry" />
        </mxCell>
        <mxCell id="O18itCTXoVbGsk_E1Cya-64" value="Database Service" style="fillColor=none;strokeColor=#5A6C86;verticalAlign=top;fontStyle=0;fontColor=#5A6C86;whiteSpace=wrap;html=1;strokeWidth=3;" vertex="1" parent="O18itCTXoVbGsk_E1Cya-55">
          <mxGeometry x="10" y="440" width="430" height="170" as="geometry" />
        </mxCell>
        <mxCell id="O18itCTXoVbGsk_E1Cya-61" value="Secret Manager Service" style="fillColor=none;strokeColor=#5A6C86;verticalAlign=top;fontStyle=0;fontColor=#5A6C86;whiteSpace=wrap;html=1;strokeWidth=3;" vertex="1" parent="O18itCTXoVbGsk_E1Cya-55">
          <mxGeometry x="200" y="171" width="270" height="187" as="geometry" />
        </mxCell>
        <mxCell id="O18itCTXoVbGsk_E1Cya-31" value="Secret" style="sketch=0;outlineConnect=0;fontColor=#232F3E;gradientColor=none;fillColor=#DD344C;strokeColor=none;dashed=0;verticalLabelPosition=bottom;verticalAlign=top;align=center;html=1;fontSize=12;fontStyle=0;aspect=fixed;pointerEvents=1;shape=mxgraph.aws4.long_term_security_credential;" vertex="1" parent="O18itCTXoVbGsk_E1Cya-55">
          <mxGeometry x="370" y="236" width="78" height="69" as="geometry" />
        </mxCell>
        <mxCell id="O18itCTXoVbGsk_E1Cya-29" value="SQL Server Instance" style="sketch=0;outlineConnect=0;fontColor=#232F3E;gradientColor=none;fillColor=#C925D1;strokeColor=none;dashed=0;verticalLabelPosition=bottom;verticalAlign=top;align=center;html=1;fontSize=12;fontStyle=0;aspect=fixed;pointerEvents=1;shape=mxgraph.aws4.rds_sql_server_instance;" vertex="1" parent="O18itCTXoVbGsk_E1Cya-55">
          <mxGeometry x="270" y="481" width="78" height="78" as="geometry" />
        </mxCell>
        <mxCell id="O18itCTXoVbGsk_E1Cya-28" value="Amazon RDS" style="sketch=0;points=[[0,0,0],[0.25,0,0],[0.5,0,0],[0.75,0,0],[1,0,0],[0,1,0],[0.25,1,0],[0.5,1,0],[0.75,1,0],[1,1,0],[0,0.25,0],[0,0.5,0],[0,0.75,0],[1,0.25,0],[1,0.5,0],[1,0.75,0]];outlineConnect=0;fontColor=#232F3E;fillColor=#C925D1;strokeColor=#ffffff;dashed=0;verticalLabelPosition=bottom;verticalAlign=top;align=center;html=1;fontSize=12;fontStyle=0;aspect=fixed;shape=mxgraph.aws4.resourceIcon;resIcon=mxgraph.aws4.rds;" vertex="1" parent="O18itCTXoVbGsk_E1Cya-55">
          <mxGeometry x="90" y="481" width="78" height="78" as="geometry" />
        </mxCell>
        <mxCell id="O18itCTXoVbGsk_E1Cya-32" value="Amazon Secret Manager" style="sketch=0;points=[[0,0,0],[0.25,0,0],[0.5,0,0],[0.75,0,0],[1,0,0],[0,1,0],[0.25,1,0],[0.5,1,0],[0.75,1,0],[1,1,0],[0,0.25,0],[0,0.5,0],[0,0.75,0],[1,0.25,0],[1,0.5,0],[1,0.75,0]];outlineConnect=0;fontColor=#232F3E;fillColor=#DD344C;strokeColor=#ffffff;dashed=0;verticalLabelPosition=bottom;verticalAlign=top;align=center;html=1;fontSize=12;fontStyle=0;aspect=fixed;shape=mxgraph.aws4.resourceIcon;resIcon=mxgraph.aws4.secrets_manager;" vertex="1" parent="O18itCTXoVbGsk_E1Cya-55">
          <mxGeometry x="230" y="231.5" width="78" height="78" as="geometry" />
        </mxCell>
        <mxCell id="O18itCTXoVbGsk_E1Cya-62" value="" style="edgeStyle=orthogonalEdgeStyle;html=1;endArrow=block;elbow=vertical;startArrow=none;endFill=1;strokeColor=#545B64;rounded=0;exitX=1;exitY=0.5;exitDx=0;exitDy=0;exitPerimeter=0;" edge="1" parent="O18itCTXoVbGsk_E1Cya-55" source="O18itCTXoVbGsk_E1Cya-32" target="O18itCTXoVbGsk_E1Cya-31">
          <mxGeometry width="100" relative="1" as="geometry">
            <mxPoint x="360" y="341" as="sourcePoint" />
            <mxPoint x="460" y="341" as="targetPoint" />
          </mxGeometry>
        </mxCell>
        <mxCell id="O18itCTXoVbGsk_E1Cya-63" value="" style="edgeStyle=orthogonalEdgeStyle;html=1;endArrow=block;elbow=vertical;startArrow=none;endFill=1;strokeColor=#545B64;rounded=0;" edge="1" parent="O18itCTXoVbGsk_E1Cya-55" source="O18itCTXoVbGsk_E1Cya-28" target="O18itCTXoVbGsk_E1Cya-29">
          <mxGeometry width="100" relative="1" as="geometry">
            <mxPoint x="200" y="481" as="sourcePoint" />
            <mxPoint x="89" y="547" as="targetPoint" />
          </mxGeometry>
        </mxCell>
        <mxCell id="O18itCTXoVbGsk_E1Cya-27" value="Amazon EKS" style="sketch=0;points=[[0,0,0],[0.25,0,0],[0.5,0,0],[0.75,0,0],[1,0,0],[0,1,0],[0.25,1,0],[0.5,1,0],[0.75,1,0],[1,1,0],[0,0.25,0],[0,0.5,0],[0,0.75,0],[1,0.25,0],[1,0.5,0],[1,0.75,0]];outlineConnect=0;fontColor=#232F3E;fillColor=#ED7100;strokeColor=#ffffff;dashed=0;verticalLabelPosition=bottom;verticalAlign=top;align=center;html=1;fontSize=12;fontStyle=0;aspect=fixed;shape=mxgraph.aws4.resourceIcon;resIcon=mxgraph.aws4.eks_cloud;" vertex="1" parent="O18itCTXoVbGsk_E1Cya-55">
          <mxGeometry x="620" y="183" width="78" height="78" as="geometry" />
        </mxCell>
        <mxCell id="O18itCTXoVbGsk_E1Cya-20" value="" style="aspect=fixed;sketch=0;html=1;dashed=0;whitespace=wrap;verticalLabelPosition=bottom;verticalAlign=top;fillColor=#2875E2;strokeColor=#ffffff;points=[[0.005,0.63,0],[0.1,0.2,0],[0.9,0.2,0],[0.5,0,0],[0.995,0.63,0],[0.72,0.99,0],[0.5,1,0],[0.28,0.99,0]];shape=mxgraph.kubernetes.icon2;kubernetesLabel=1;prIcon=secret" vertex="1" parent="O18itCTXoVbGsk_E1Cya-55">
          <mxGeometry x="830" y="381" width="50" height="48" as="geometry" />
        </mxCell>
        <mxCell id="O18itCTXoVbGsk_E1Cya-15" value="" style="aspect=fixed;sketch=0;html=1;dashed=0;whitespace=wrap;verticalLabelPosition=bottom;verticalAlign=top;fillColor=#2875E2;strokeColor=#ffffff;points=[[0.005,0.63,0],[0.1,0.2,0],[0.9,0.2,0],[0.5,0,0],[0.995,0.63,0],[0.72,0.99,0],[0.5,1,0],[0.28,0.99,0]];shape=mxgraph.kubernetes.icon2;kubernetesLabel=1;prIcon=pod" vertex="1" parent="O18itCTXoVbGsk_E1Cya-55">
          <mxGeometry x="1020" y="265" width="50" height="48" as="geometry" />
        </mxCell>
        <mxCell id="O18itCTXoVbGsk_E1Cya-14" value="" style="aspect=fixed;sketch=0;html=1;dashed=0;whitespace=wrap;verticalLabelPosition=bottom;verticalAlign=top;fillColor=#2875E2;strokeColor=#ffffff;points=[[0.005,0.63,0],[0.1,0.2,0],[0.9,0.2,0],[0.5,0,0],[0.995,0.63,0],[0.72,0.99,0],[0.5,1,0],[0.28,0.99,0]];shape=mxgraph.kubernetes.icon2;kubernetesLabel=1;prIcon=pod" vertex="1" parent="O18itCTXoVbGsk_E1Cya-55">
          <mxGeometry x="1020" y="323" width="50" height="48" as="geometry" />
        </mxCell>
        <mxCell id="O18itCTXoVbGsk_E1Cya-17" value="" style="aspect=fixed;sketch=0;html=1;dashed=0;whitespace=wrap;verticalLabelPosition=bottom;verticalAlign=top;fillColor=#2875E2;strokeColor=#ffffff;points=[[0.005,0.63,0],[0.1,0.2,0],[0.9,0.2,0],[0.5,0,0],[0.995,0.63,0],[0.72,0.99,0],[0.5,1,0],[0.28,0.99,0]];shape=mxgraph.kubernetes.icon2;kubernetesLabel=1;prIcon=deploy" vertex="1" parent="O18itCTXoVbGsk_E1Cya-55">
          <mxGeometry x="940" y="213" width="50" height="48" as="geometry" />
        </mxCell>
        <mxCell id="O18itCTXoVbGsk_E1Cya-39" value="App Deployment" style="fillColor=none;strokeColor=#5A6C86;dashed=1;verticalAlign=top;fontStyle=0;fontColor=#5A6C86;whiteSpace=wrap;html=1;" vertex="1" parent="O18itCTXoVbGsk_E1Cya-55">
          <mxGeometry x="940" y="203" width="190" height="190" as="geometry" />
        </mxCell>
        <mxCell id="O18itCTXoVbGsk_E1Cya-42" value="" style="edgeStyle=orthogonalEdgeStyle;html=1;endArrow=block;elbow=vertical;startArrow=none;endFill=1;strokeColor=#545B64;rounded=0;exitX=0.75;exitY=1;exitDx=0;exitDy=0;" edge="1" parent="O18itCTXoVbGsk_E1Cya-55" source="O18itCTXoVbGsk_E1Cya-39" target="O18itCTXoVbGsk_E1Cya-29">
          <mxGeometry width="100" relative="1" as="geometry">
            <mxPoint x="80" y="641" as="sourcePoint" />
            <mxPoint x="560" y="731" as="targetPoint" />
            <Array as="points">
              <mxPoint x="1083" y="520" />
            </Array>
          </mxGeometry>
        </mxCell>
        <mxCell id="O18itCTXoVbGsk_E1Cya-18" value="Load Balance" style="aspect=fixed;sketch=0;html=1;dashed=0;whitespace=wrap;verticalLabelPosition=bottom;verticalAlign=top;fillColor=#2875E2;strokeColor=#ffffff;points=[[0.005,0.63,0],[0.1,0.2,0],[0.9,0.2,0],[0.5,0,0],[0.995,0.63,0],[0.72,0.99,0],[0.5,1,0],[0.28,0.99,0]];shape=mxgraph.kubernetes.icon2;kubernetesLabel=1;prIcon=svc" vertex="1" parent="O18itCTXoVbGsk_E1Cya-55">
          <mxGeometry x="790" y="213" width="50" height="48" as="geometry" />
        </mxCell>
        <mxCell id="O18itCTXoVbGsk_E1Cya-38" value="" style="edgeStyle=orthogonalEdgeStyle;html=1;endArrow=block;elbow=vertical;startArrow=none;endFill=1;strokeColor=#545B64;rounded=0;exitX=0;exitY=0.5;exitDx=0;exitDy=0;entryX=0.995;entryY=0.63;entryDx=0;entryDy=0;entryPerimeter=0;" edge="1" parent="O18itCTXoVbGsk_E1Cya-55" source="O18itCTXoVbGsk_E1Cya-39" target="O18itCTXoVbGsk_E1Cya-18">
          <mxGeometry width="100" relative="1" as="geometry">
            <mxPoint x="790" y="493" as="sourcePoint" />
            <mxPoint x="890" y="493" as="targetPoint" />
          </mxGeometry>
        </mxCell>
        <mxCell id="O18itCTXoVbGsk_E1Cya-19" value="" style="aspect=fixed;sketch=0;html=1;dashed=0;whitespace=wrap;verticalLabelPosition=bottom;verticalAlign=top;fillColor=#2875E2;strokeColor=#ffffff;points=[[0.005,0.63,0],[0.1,0.2,0],[0.9,0.2,0],[0.5,0,0],[0.995,0.63,0],[0.72,0.99,0],[0.5,1,0],[0.28,0.99,0]];shape=mxgraph.kubernetes.icon2;kubernetesLabel=1;prIcon=hpa" vertex="1" parent="O18itCTXoVbGsk_E1Cya-55">
          <mxGeometry x="1010" y="103" width="50" height="48" as="geometry" />
        </mxCell>
        <mxCell id="O18itCTXoVbGsk_E1Cya-54" value="" style="edgeStyle=orthogonalEdgeStyle;html=1;endArrow=block;elbow=vertical;startArrow=none;endFill=1;strokeColor=#545B64;rounded=0;exitX=0.995;exitY=0.63;exitDx=0;exitDy=0;exitPerimeter=0;entryX=0.75;entryY=0;entryDx=0;entryDy=0;" edge="1" parent="O18itCTXoVbGsk_E1Cya-55" source="O18itCTXoVbGsk_E1Cya-19" target="O18itCTXoVbGsk_E1Cya-39">
          <mxGeometry width="100" relative="1" as="geometry">
            <mxPoint x="1060" y="113" as="sourcePoint" />
            <mxPoint x="1160" y="113" as="targetPoint" />
          </mxGeometry>
        </mxCell>
        <mxCell id="O18itCTXoVbGsk_E1Cya-67" value="Cluster" style="points=[[0,0],[0.25,0],[0.5,0],[0.75,0],[1,0],[1,0.25],[1,0.5],[1,0.75],[1,1],[0.75,1],[0.5,1],[0.25,1],[0,1],[0,0.75],[0,0.5],[0,0.25]];outlineConnect=0;gradientColor=none;html=1;whiteSpace=wrap;fontSize=12;fontStyle=0;container=1;pointerEvents=0;collapsible=0;recursiveResize=0;shape=mxgraph.aws4.groupCenter;grIcon=mxgraph.aws4.group_auto_scaling_group;grStroke=1;strokeColor=#D86613;fillColor=none;verticalAlign=top;align=center;fontColor=#D86613;spacingTop=25;strokeWidth=3;" vertex="1" parent="O18itCTXoVbGsk_E1Cya-55">
          <mxGeometry x="730" y="70" width="430" height="370" as="geometry" />
        </mxCell>
        <mxCell id="O18itCTXoVbGsk_E1Cya-68" value="" style="edgeStyle=orthogonalEdgeStyle;html=1;endArrow=block;elbow=vertical;startArrow=none;endFill=1;strokeColor=#545B64;rounded=0;entryX=0.005;entryY=0.63;entryDx=0;entryDy=0;entryPerimeter=0;" edge="1" parent="O18itCTXoVbGsk_E1Cya-55" source="O18itCTXoVbGsk_E1Cya-31" target="O18itCTXoVbGsk_E1Cya-20">
          <mxGeometry width="100" relative="1" as="geometry">
            <mxPoint x="460" y="371" as="sourcePoint" />
            <mxPoint x="560" y="371" as="targetPoint" />
            <Array as="points">
              <mxPoint x="530" y="271" />
              <mxPoint x="530" y="411" />
            </Array>
          </mxGeometry>
        </mxCell>
        <mxCell id="O18itCTXoVbGsk_E1Cya-74" value="" style="edgeStyle=orthogonalEdgeStyle;html=1;endArrow=block;elbow=vertical;startArrow=none;endFill=1;strokeColor=#545B64;rounded=0;exitX=0.5;exitY=1;exitDx=0;exitDy=0;entryX=0.995;entryY=0.63;entryDx=0;entryDy=0;entryPerimeter=0;" edge="1" parent="O18itCTXoVbGsk_E1Cya-55" source="O18itCTXoVbGsk_E1Cya-39" target="O18itCTXoVbGsk_E1Cya-20">
          <mxGeometry width="100" relative="1" as="geometry">
            <mxPoint x="959" y="418" as="sourcePoint" />
            <mxPoint x="1059" y="418" as="targetPoint" />
          </mxGeometry>
        </mxCell>
        <mxCell id="O18itCTXoVbGsk_E1Cya-33" value="Amazon ECR" style="sketch=0;points=[[0,0,0],[0.25,0,0],[0.5,0,0],[0.75,0,0],[1,0,0],[0,1,0],[0.25,1,0],[0.5,1,0],[0.75,1,0],[1,1,0],[0,0.25,0],[0,0.5,0],[0,0.75,0],[1,0.25,0],[1,0.5,0],[1,0.75,0]];outlineConnect=0;fontColor=#232F3E;fillColor=#ED7100;strokeColor=#ffffff;dashed=0;verticalLabelPosition=bottom;verticalAlign=top;align=center;html=1;fontSize=12;fontStyle=0;aspect=fixed;shape=mxgraph.aws4.resourceIcon;resIcon=mxgraph.aws4.ecr;" vertex="1" parent="1">
          <mxGeometry x="30" y="40" width="78" height="78" as="geometry" />
        </mxCell>
        <mxCell id="O18itCTXoVbGsk_E1Cya-34" value="Container Registry" style="sketch=0;outlineConnect=0;fontColor=#232F3E;gradientColor=none;fillColor=#ED7100;strokeColor=none;dashed=0;verticalLabelPosition=bottom;verticalAlign=top;align=center;html=1;fontSize=12;fontStyle=0;aspect=fixed;pointerEvents=1;shape=mxgraph.aws4.registry;" vertex="1" parent="1">
          <mxGeometry x="45" y="152" width="48" height="48" as="geometry" />
        </mxCell>
        <mxCell id="O18itCTXoVbGsk_E1Cya-36" value="" style="edgeStyle=orthogonalEdgeStyle;html=1;endArrow=block;elbow=vertical;startArrow=none;endFill=1;strokeColor=#545B64;rounded=0;entryX=0.25;entryY=0;entryDx=0;entryDy=0;" edge="1" parent="1" source="O18itCTXoVbGsk_E1Cya-34" target="O18itCTXoVbGsk_E1Cya-39">
          <mxGeometry width="100" relative="1" as="geometry">
            <mxPoint x="330" y="250" as="sourcePoint" />
            <mxPoint x="1090" y="190" as="targetPoint" />
            <Array as="points">
              <mxPoint x="1188" y="176" />
            </Array>
          </mxGeometry>
        </mxCell>
        <mxCell id="O18itCTXoVbGsk_E1Cya-48" value="" style="sketch=0;outlineConnect=0;fontColor=#232F3E;gradientColor=none;fillColor=#232F3D;strokeColor=none;dashed=0;verticalLabelPosition=bottom;verticalAlign=top;align=center;html=1;fontSize=12;fontStyle=0;aspect=fixed;pointerEvents=1;shape=mxgraph.aws4.globe;" vertex="1" parent="1">
          <mxGeometry x="971" y="-167" width="78" height="78" as="geometry" />
        </mxCell>
        <mxCell id="O18itCTXoVbGsk_E1Cya-49" value="" style="sketch=0;outlineConnect=0;fontColor=#232F3E;gradientColor=none;fillColor=#232F3D;strokeColor=none;dashed=0;verticalLabelPosition=bottom;verticalAlign=top;align=center;html=1;fontSize=12;fontStyle=0;aspect=fixed;pointerEvents=1;shape=mxgraph.aws4.mobile_client;" vertex="1" parent="1">
          <mxGeometry x="1123" y="-167" width="41" height="78" as="geometry" />
        </mxCell>
        <mxCell id="O18itCTXoVbGsk_E1Cya-50" value="" style="sketch=0;outlineConnect=0;fontColor=#232F3E;gradientColor=none;fillColor=#232F3D;strokeColor=none;dashed=0;verticalLabelPosition=bottom;verticalAlign=top;align=center;html=1;fontSize=12;fontStyle=0;aspect=fixed;pointerEvents=1;shape=mxgraph.aws4.client;" vertex="1" parent="1">
          <mxGeometry x="843" y="-165" width="78" height="76" as="geometry" />
        </mxCell>
        <mxCell id="O18itCTXoVbGsk_E1Cya-69" value="AWS Cloud" style="points=[[0,0],[0.25,0],[0.5,0],[0.75,0],[1,0],[1,0.25],[1,0.5],[1,0.75],[1,1],[0.75,1],[0.5,1],[0.25,1],[0,1],[0,0.75],[0,0.5],[0,0.25]];outlineConnect=0;gradientColor=none;html=1;whiteSpace=wrap;fontSize=12;fontStyle=0;container=1;pointerEvents=0;collapsible=0;recursiveResize=0;shape=mxgraph.aws4.group;grIcon=mxgraph.aws4.group_aws_cloud_alt;strokeColor=#232F3E;fillColor=none;verticalAlign=top;align=left;spacingLeft=30;fontColor=#232F3E;dashed=0;strokeWidth=3;" vertex="1" parent="1">
          <mxGeometry width="1430" height="700" as="geometry" />
        </mxCell>
        <mxCell id="O18itCTXoVbGsk_E1Cya-71" value="" style="edgeStyle=orthogonalEdgeStyle;html=1;endArrow=block;elbow=vertical;startArrow=none;endFill=1;strokeColor=#545B64;rounded=0;entryX=0.5;entryY=0;entryDx=0;entryDy=0;entryPerimeter=0;" edge="1" parent="1" source="O18itCTXoVbGsk_E1Cya-50">
          <mxGeometry width="100" relative="1" as="geometry">
            <mxPoint x="866" y="20" as="sourcePoint" />
            <mxPoint x="1011" y="342" as="targetPoint" />
            <Array as="points">
              <mxPoint x="876" y="-40" />
              <mxPoint x="1011" y="-40" />
            </Array>
          </mxGeometry>
        </mxCell>
        <mxCell id="O18itCTXoVbGsk_E1Cya-72" value="" style="edgeStyle=orthogonalEdgeStyle;html=1;endArrow=block;elbow=vertical;startArrow=none;endFill=1;strokeColor=#545B64;rounded=0;entryX=0.5;entryY=0;entryDx=0;entryDy=0;entryPerimeter=0;" edge="1" parent="1" source="O18itCTXoVbGsk_E1Cya-48">
          <mxGeometry width="100" relative="1" as="geometry">
            <mxPoint x="996" y="-80" as="sourcePoint" />
            <mxPoint x="1011" y="342" as="targetPoint" />
            <Array as="points">
              <mxPoint x="1011" y="20" />
              <mxPoint x="1011" y="20" />
            </Array>
          </mxGeometry>
        </mxCell>
        <mxCell id="O18itCTXoVbGsk_E1Cya-73" value="" style="edgeStyle=orthogonalEdgeStyle;html=1;endArrow=block;elbow=vertical;startArrow=none;endFill=1;strokeColor=#545B64;rounded=0;entryX=0.5;entryY=0;entryDx=0;entryDy=0;entryPerimeter=0;" edge="1" parent="1" source="O18itCTXoVbGsk_E1Cya-49">
          <mxGeometry width="100" relative="1" as="geometry">
            <mxPoint x="1056" y="10" as="sourcePoint" />
            <mxPoint x="1011" y="342" as="targetPoint" />
            <Array as="points">
              <mxPoint x="1137" y="-40" />
              <mxPoint x="1011" y="-40" />
            </Array>
          </mxGeometry>
        </mxCell>
      </root>
    </mxGraphModel>
  </diagram>
</mxfile>
